<svg version="1.1" id="Layer_1" xmlns="http://www.w3.org/2000/svg" xmlns:xlink="http://www.w3.org/1999/xlink" x="0px" y="0px"
	 width="100%" viewBox="0 0 512 512" enable-background="new 0 0 512 512" xml:space="preserve">
<path fill="#6444A0" opacity="1.000000" stroke="none" 
	d="
M1.000000,257.000000 
	C1.000000,171.739624 1.000000,86.479248 1.000000,1.000000 
	C86.020767,1.000000 171.041733,1.000000 256.505676,1.468100 
	C256.948700,49.488766 256.948700,97.041336 256.948700,145.004211 
	C259.741974,145.004211 261.717438,145.004135 263.692932,145.004227 
	C297.839111,145.005798 331.985352,144.993607 366.131439,145.045410 
	C368.050690,145.048309 369.969177,145.578064 371.533875,145.929138 
	C355.308258,150.778931 347.920166,173.091248 365.195465,186.976959 
	C365.617035,187.475693 365.871948,187.743622 366.055542,188.005920 
	C365.984192,188.000290 365.993378,187.857468 366.159943,188.148285 
	C366.925171,188.587646 367.523865,188.736176 368.074615,188.835907 
	C368.026703,188.787094 368.092041,188.666931 367.979065,189.023590 
	C370.938873,192.553070 374.011597,195.725876 376.711670,199.009247 
	C365.216614,201.853561 361.337280,206.861435 361.260559,218.417206 
	C361.210144,226.014313 361.055664,233.610718 360.637451,241.063995 
	C356.568817,237.382553 352.881958,233.764175 349.025970,230.336090 
	C346.633301,228.208923 343.984039,226.370331 341.530457,224.299408 
	C341.610901,224.196609 341.868652,224.238281 341.835449,223.943756 
	C341.479156,223.444168 341.156097,223.239105 340.902161,223.029694 
	C340.971313,223.025345 340.973633,223.163910 340.866211,222.891495 
	C340.412811,222.445358 340.066833,222.271652 339.419861,221.962509 
	C321.982239,198.532028 292.223846,194.248611 270.353088,205.081573 
	C255.789459,212.295166 246.839737,224.255661 241.198029,239.196014 
	C238.790787,237.176163 236.782074,235.216095 234.695831,233.342361 
	C230.806015,229.848740 226.871170,226.405319 222.730255,222.695221 
	C220.909195,220.803589 219.284592,219.184204 217.721069,217.507858 
	C202.304764,200.979111 183.402252,195.876801 161.933517,201.772034 
	C137.831757,208.390274 123.134811,229.184097 121.373749,256.893372 
	C80.944359,256.947479 40.972179,256.973724 1.000000,257.000000 
z"/>
<path fill="#1E1D20" opacity="1.000000" stroke="none" 
	d="
M341.449982,224.402191 
	C343.984039,226.370331 346.633301,228.208923 349.025970,230.336090 
	C352.881958,233.764175 356.568817,237.382553 360.740967,241.501556 
	C361.190765,259.209015 361.188171,276.335663 361.276855,293.461823 
	C361.333038,304.308624 367.536438,311.143768 377.209839,311.208344 
	C387.249023,311.275360 393.738617,304.410553 393.747009,293.553680 
	C393.766541,268.277802 393.752930,243.001801 393.701508,217.725952 
	C393.677368,205.860382 388.717621,200.305542 377.084351,198.898697 
	C374.011597,195.725876 370.938873,192.553070 368.384949,189.061081 
	C386.729828,195.466873 403.095306,180.480255 399.977173,163.573776 
	C399.504333,161.010086 398.555359,158.534210 398.178650,156.014511 
	C435.185150,192.435425 471.835480,228.863724 508.510193,265.267517 
	C509.886108,266.633270 511.498047,267.761230 513.000000,269.000000 
	C513.000000,350.244751 513.000000,431.489502 513.000000,513.000000 
	C460.646057,513.000000 408.291687,513.000000 355.430176,512.661499 
	C354.113312,511.485657 353.315674,510.636230 352.492096,509.812805 
	C285.618683,442.950500 218.738007,376.095428 151.899551,309.198212 
	C150.343155,307.640442 149.259918,305.609924 148.324585,303.852417 
	C169.833313,315.119232 190.689697,314.895294 210.009094,300.441864 
	C229.319534,285.995117 235.728485,265.932861 230.770493,242.593155 
	C229.326523,235.795776 225.622894,229.478409 222.955063,222.941010 
	C226.871170,226.405319 230.806015,229.848740 234.695831,233.342361 
	C236.782074,235.216095 238.790787,237.176163 241.190002,239.603500 
	C241.182693,241.903625 240.815063,243.696564 240.457748,245.491562 
	C234.746719,274.182343 253.199051,303.132111 281.602692,309.983429 
	C294.009369,312.976074 306.015198,311.548950 317.621063,306.121704 
	C318.917175,320.108826 311.092590,330.215271 297.812073,332.260681 
	C289.307861,333.570465 282.032013,330.690247 275.560120,325.596954 
	C270.461884,321.584747 265.720612,317.119659 260.809448,312.868774 
	C256.166107,308.849762 251.838303,308.843506 247.234085,312.985718 
	C242.771362,317.000641 240.788406,322.265411 242.530457,327.869354 
	C244.275848,333.484100 246.441162,339.380890 249.975021,343.954376 
	C263.898254,361.973663 282.821594,368.537506 304.866119,364.404633 
	C330.909698,359.522003 349.271027,337.211395 349.937225,310.699188 
	C350.297028,296.379974 349.748871,282.036652 350.171051,267.720703 
	C350.618896,252.533035 349.383179,237.833099 341.449982,224.402191 
z"/>
<path fill="#B9A1D3" opacity="1.000000" stroke="none" 
	d="
M147.955978,303.799927 
	C149.259918,305.609924 150.343155,307.640442 151.899551,309.198212 
	C218.738007,376.095428 285.618683,442.950500 352.492096,509.812805 
	C353.315674,510.636230 354.113312,511.485657 354.961517,512.661499 
	C237.084656,513.000000 119.169304,513.000000 1.000000,513.000000 
	C1.000000,427.979279 1.000000,342.958282 1.000000,257.468658 
	C40.972179,256.973724 80.944359,256.947479 121.424431,257.345154 
	C122.108879,268.837463 125.245697,279.068359 131.799774,287.914124 
	C135.804688,293.319366 140.844177,297.958069 145.748260,303.223694 
	C146.746292,303.642151 147.415039,303.777954 148.023987,303.916565 
	C147.964157,303.919434 147.955978,303.799927 147.955978,303.799927 
z"/>
<path fill="#B9A1D3" opacity="1.000000" stroke="none" 
	d="
M513.000000,268.531342 
	C511.498047,267.761230 509.886108,266.633270 508.510193,265.267517 
	C471.835480,228.863724 435.185150,192.435425 398.245544,156.005676 
	C397.960480,156.000076 397.989349,156.132736 397.980713,155.802521 
	C397.588226,155.312485 397.204346,155.152679 396.507477,154.893539 
	C389.879486,146.953384 382.058319,143.211487 371.888000,145.862595 
	C369.969177,145.578064 368.050690,145.048309 366.131439,145.045410 
	C331.985352,144.993607 297.839111,145.005798 263.692932,145.004227 
	C261.717438,145.004135 259.741974,145.004211 256.948700,145.004211 
	C256.948700,97.041336 256.948700,49.488766 256.974365,1.468100 
	C342.262054,1.000000 427.524139,1.000000 513.000000,1.000000 
	C513.000000,90.020782 513.000000,179.041733 513.000000,268.531342 
z"/>
<path fill="#FDFDFE" opacity="1.000000" stroke="none" 
	d="
M341.530457,224.299408 
	C349.383179,237.833099 350.618896,252.533035 350.171051,267.720703 
	C349.748871,282.036652 350.297028,296.379974 349.937225,310.699188 
	C349.271027,337.211395 330.909698,359.522003 304.866119,364.404633 
	C282.821594,368.537506 263.898254,361.973663 249.975021,343.954376 
	C246.441162,339.380890 244.275848,333.484100 242.530457,327.869354 
	C240.788406,322.265411 242.771362,317.000641 247.234085,312.985718 
	C251.838303,308.843506 256.166107,308.849762 260.809448,312.868774 
	C265.720612,317.119659 270.461884,321.584747 275.560120,325.596954 
	C282.032013,330.690247 289.307861,333.570465 297.812073,332.260681 
	C311.092590,330.215271 318.917175,320.108826 317.621063,306.121704 
	C306.015198,311.548950 294.009369,312.976074 281.602692,309.983429 
	C253.199051,303.132111 234.746719,274.182343 240.457748,245.491562 
	C240.815063,243.696564 241.182693,241.903625 241.553543,239.702240 
	C246.839737,224.255661 255.789459,212.295166 270.353088,205.081573 
	C292.223846,194.248611 321.982239,198.532028 339.519531,222.280365 
	C340.271271,222.877075 340.622467,223.020493 340.973633,223.163910 
	C340.973633,223.163910 340.971313,223.025345 340.836456,223.407776 
	C341.090607,223.939560 341.479645,224.088913 341.868652,224.238281 
	C341.868652,224.238281 341.610901,224.196609 341.530457,224.299408 
M317.036987,248.770355 
	C312.004150,235.587067 299.487976,229.299469 287.213959,233.788467 
	C275.425812,238.099762 269.257965,251.006271 273.245117,263.018860 
	C277.034302,274.435028 289.521912,281.010620 301.257416,277.769348 
	C313.164307,274.480743 320.129059,262.166382 317.036987,248.770355 
z"/>
<path fill="#FCFCFE" opacity="1.000000" stroke="none" 
	d="
M145.419006,302.941040 
	C140.844177,297.958069 135.804688,293.319366 131.799774,287.914124 
	C125.245697,279.068359 122.108879,268.837463 121.881638,257.317322 
	C123.134811,229.184097 137.831757,208.390274 161.933517,201.772034 
	C183.402252,195.876801 202.304764,200.979111 217.721069,217.507858 
	C219.284592,219.184204 220.909195,220.803589 222.730255,222.695221 
	C225.622894,229.478409 229.326523,235.795776 230.770493,242.593155 
	C235.728485,265.932861 229.319534,285.995117 210.009094,300.441864 
	C190.689697,314.895294 169.833313,315.119232 148.324585,303.852417 
	C147.955978,303.799927 147.964157,303.919434 147.793945,303.552795 
	C146.888840,303.104431 146.153915,303.022736 145.419006,302.941040 
M154.880646,259.562988 
	C158.036072,273.567291 170.556747,281.534424 183.619980,277.850342 
	C196.131668,274.321808 203.367538,259.932068 198.867874,247.527328 
	C194.949005,236.723694 183.387375,230.509232 171.903824,233.033905 
	C160.688843,235.499557 153.717636,245.978516 154.880646,259.562988 
z"/>
<path fill="#FAF9FB" opacity="1.000000" stroke="none" 
	d="
M376.711670,199.009247 
	C388.717621,200.305542 393.677368,205.860382 393.701508,217.725952 
	C393.752930,243.001801 393.766541,268.277802 393.747009,293.553680 
	C393.738617,304.410553 387.249023,311.275360 377.209839,311.208344 
	C367.536438,311.143768 361.333038,304.308624 361.276855,293.461823 
	C361.188171,276.335663 361.190765,259.209015 361.051270,241.645020 
	C361.055664,233.610718 361.210144,226.014313 361.260559,218.417206 
	C361.337280,206.861435 365.216614,201.853561 376.711670,199.009247 
z"/>
<path fill="#FCFCFD" opacity="1.000000" stroke="none" 
	d="
M371.533875,145.929138 
	C382.058319,143.211487 389.879486,146.953384 396.578735,155.217560 
	C397.305145,155.804840 397.647247,155.968781 397.989349,156.132736 
	C397.989349,156.132736 397.960480,156.000076 397.893555,156.008911 
	C398.555359,158.534210 399.504333,161.010086 399.977173,163.573776 
	C403.095306,180.480255 386.729828,195.466873 368.497894,188.704407 
	C368.092041,188.666931 368.026703,188.787094 367.975311,188.504364 
	C367.280396,188.100250 366.636902,187.978867 365.993378,187.857468 
	C365.993378,187.857468 365.984192,188.000290 366.095032,187.674576 
	C365.813538,187.147949 365.421143,186.947052 365.028778,186.746140 
	C347.920166,173.091248 355.308258,150.778931 371.533875,145.929138 
z"/>
<path fill="#1E1D20" opacity="1.000000" stroke="none" 
	d="
M366.159943,188.148285 
	C366.636902,187.978867 367.280396,188.100250 368.023224,188.553177 
	C367.523865,188.736176 366.925171,188.587646 366.159943,188.148285 
z"/>
<path fill="#1E1D20" opacity="1.000000" stroke="none" 
	d="
M365.195465,186.976959 
	C365.421143,186.947052 365.813538,187.147949 366.166382,187.680206 
	C365.871948,187.743622 365.617035,187.475693 365.195465,186.976959 
z"/>
<path fill="#1E1D20" opacity="1.000000" stroke="none" 
	d="
M340.866211,222.891495 
	C340.622467,223.020493 340.271271,222.877075 339.820465,222.415802 
	C340.066833,222.271652 340.412811,222.445358 340.866211,222.891495 
z"/>
<path fill="#1E1D20" opacity="1.000000" stroke="none" 
	d="
M341.835449,223.943756 
	C341.479645,224.088913 341.090607,223.939560 340.767303,223.412109 
	C341.156097,223.239105 341.479156,223.444168 341.835449,223.943756 
z"/>
<path fill="#1E1D20" opacity="1.000000" stroke="none" 
	d="
M145.748260,303.223694 
	C146.153915,303.022736 146.888840,303.104431 147.853775,303.549927 
	C147.415039,303.777954 146.746292,303.642151 145.748260,303.223694 
z"/>
<path fill="#1E1D20" opacity="1.000000" stroke="none" 
	d="
M397.980713,155.802521 
	C397.647247,155.968781 397.305145,155.804840 396.891785,155.316895 
	C397.204346,155.152679 397.588226,155.312485 397.980713,155.802521 
z"/>
<path fill="#201F21" opacity="1.000000" stroke="none" 
	d="
M317.119202,249.174652 
	C320.129059,262.166382 313.164307,274.480743 301.257416,277.769348 
	C289.521912,281.010620 277.034302,274.435028 273.245117,263.018860 
	C269.257965,251.006271 275.425812,238.099762 287.213959,233.788467 
	C299.487976,229.299469 312.004150,235.587067 317.119202,249.174652 
z"/>
<path fill="#201E21" opacity="1.000000" stroke="none" 
	d="
M154.836884,259.158661 
	C153.717636,245.978516 160.688843,235.499557 171.903824,233.033905 
	C183.387375,230.509232 194.949005,236.723694 198.867874,247.527328 
	C203.367538,259.932068 196.131668,274.321808 183.619980,277.850342 
	C170.556747,281.534424 158.036072,273.567291 154.836884,259.158661 
z"/>
</svg>